<svg id="Layer_1" data-name="Layer 1" xmlns="http://www.w3.org/2000/svg" viewBox="0 0 534.47 501.92"><defs><style>.cls-1{fill:#242528;}.cls-2{fill:#00d058;}.cls-3{fill:#fff;}.cls-4{fill:#009d3f;}</style></defs><path class="cls-1" d="M175.94,337.15,98.47,379.59h0L32.27,342.66a5.14,5.14,0,0,1,0-8.86l65.39-36.46.1-.07,3.23-1.8,1.78,1Z"/><path class="cls-1" d="M502.21,333.8a5.13,5.13,0,0,1,0,8.86l-67.9,37.88-8.07,4.5L352.3,426.29l-8.08,4.5-71.63,40a10.91,10.91,0,0,1-10.7,0l-72.5-40.44-1.75-1-81.1-45.24-8.07-4.5,77.47-42.44-73.17-40.7-1.78-1h0l.44-.24,78.88-44,0,0,6.36-3.54L243.59,216l16.12-9,.91-.52a13.41,13.41,0,0,1,13.05-.1l.2.1,80.29,44.78,11.76,6.56,34.64,19.32,0,0L433,295.21"/><path class="cls-2" d="M357.68,337.43l76.63,43.11h0l-8.07,4.51,0,0L349.62,342.1l-42.69,23.77L277,382.54a16.25,16.25,0,0,1-1.58.75l.22.12,76.67,42.88h0l-8.06,4.51,0,0-77.73-43.5-77.1,43-1.75-1-6.31-3.53L258.09,383l.18-.1c-.23-.12-.47-.21-.7-.33l-32.08-17.84h0l-1.79-1-17.32-9.64L184,341.62l-77.44,42.47h0l-8.06-4.51,77.47-42.44-73.17-40.7-1.77-1,.44-.24-.13-.07-16.44-9.21L32.3,256.46a5,5,0,0,1-2.57-4.33c0-.09,0-.18,0-.27a6.15,6.15,0,0,1,.73-2.52.93.93,0,0,0,.05-.1,4.94,4.94,0,0,1,1.78-1.67l13.8-7.73L63.62,230,103,207.94l-.07,0,25.55-14.23,40.21-22.39L217.81,144h0l39.66-22.08a20,20,0,0,1,19.45,0l9.88,5.5,33.13,18.42h0l78,43.4,33.58,18.68-.12.07,70.76,39.64a4.93,4.93,0,0,1,2.3,2.81c0,.08.05.16.06.23a6.53,6.53,0,0,1,.19,1.16,5.81,5.81,0,0,1,0,.59,5,5,0,0,1-2.55,4.1L433,295.21"/><path class="cls-3" d="M214.46,287.49c10.74,6,10.74,15.66,0,21.64s-28.15,6-38.89,0-10.74-15.66,0-21.64S203.72,281.51,214.46,287.49Z"/><path class="cls-3" d="M218.28,192.33c10.74,6,10.74,15.66,0,21.64s-28.15,6-38.89,0-10.74-15.66,0-21.64S207.54,186.36,218.28,192.33Z"/><path class="cls-3" d="M454.58,241.8c10.32,5.74,10.32,15.05,0,20.8s-27.05,5.75-37.37,0-10.32-15.05,0-20.8S444.26,236.07,454.58,241.8Z"/><path class="cls-4" d="M183,252.68l-2.62-1.47-17.94-10.05,0,0-33.51,19.36a10.37,10.37,0,0,1-10.18.07L63.62,230,46.1,239.84l53.85,30a4.24,4.24,0,0,1,.06,7.37l-15.6,8.49L101,295.47l74.15-40.62a12.75,12.75,0,0,1,11,0l4.25,2.08.09.05.36.17ZM376,327.15l-79-43.92h0l-24.46,13.7-.6.32h0l-.65.28-.54.2q-.45.15-.93.27a8.18,8.18,0,0,1-1.1.2,6,6,0,0,1-.74.08,12.18,12.18,0,0,1-1.48,0,6.2,6.2,0,0,1-.74-.08,8.75,8.75,0,0,1-1-.18,10.63,10.63,0,0,1-1.1-.32l-.46-.17-.58-.25-.44-.22,18.13,10.1c2.59,1.45,2.57,3.77,0,5.21L206.43,354l-.06,0-.05,0,19.13,10.63,0,0h0L310.3,316.3a10.68,10.68,0,0,1,9.36,0l38,21.11ZM261.92,296.93l.11.07.07,0ZM433,295.22l-30.88-17.11a16.46,16.46,0,0,1-1.55-1l0,0a9.14,9.14,0,0,1-3.83-5.12L385.61,233.6h0l-23.15,13,3.46,11.22,5.26,17c1.15,4.87,5.16,9.38,11.39,12.85l32.12,17.8h0Z"/><path class="cls-1" d="M502.19,168.28l-70.64,39.58-.12.07L385.61,233.6l-23.15,13-8.3,4.66-57.12,32h0l-24.42,13.69c-.21.12-.42.23-.64.33h0l-.65.28-.54.2q-.45.15-.93.27a8.18,8.18,0,0,1-1.1.2l-.74.08a12.18,12.18,0,0,1-1.48,0l-.74-.08a8.75,8.75,0,0,1-1-.18,10.63,10.63,0,0,1-1.1-.32l-.46-.17-.58-.25-.44-.22-.08,0-.07,0-.15-.08-71.38-40-.09-.05-10.09-5.66-17.94-10L103,207.94l-.07,0-1.66-.93-69-38.69a5.14,5.14,0,0,1,0-8.9L260.64,31.47a13.46,13.46,0,0,1,13.24,0L502.19,159.38A5.15,5.15,0,0,1,502.19,168.28Z"/><path class="cls-2" d="M249.57,229l-22.8-49.52L137.51,166.9a1.84,1.84,0,0,1-.16-3.59l199.3-47.93a3,3,0,0,1,2.89,4.76l-83.7,109.54A3.65,3.65,0,0,1,249.57,229Z"/></svg>