<svg id="Layer_1" data-name="Layer 1" xmlns="http://www.w3.org/2000/svg" viewBox="0 0 1692.77 501.92"><defs><style>.cls-1{fill:#242528;}.cls-2{fill:#00cf58;}.cls-3{fill:#00d058;}.cls-4{fill:#fff;}.cls-5{fill:#009d3f;}</style></defs><path class="cls-1" d="M599.05,51.39,654.73,125l55.69-73.63h35.87V241.48H708.81V111.9l-53.54,68.8H654.2l-53.55-68.8V241.48H563.17V51.39Z"/><path class="cls-1" d="M872.14,101.19h35.07V241.48H872.14V224.34q-13.92,20.35-44.45,20.35-29.72,0-47.11-20.88t-17.41-52.48q0-31.58,17.41-52.47T827.69,98q30.52,0,44.45,20.34ZM860.76,200q9.5-11.25,9.5-28.65t-9.5-28.65q-9.51-11.24-25-11.24t-25,11.24q-9.5,11.25-9.5,28.65t9.5,28.65q9.51,11.25,25,11.24T860.76,200Z"/><path class="cls-1" d="M968.26,226.48v70.68h-38v-196h35.08v17.13Q979.24,98,1009.76,98q29.71,0,47.12,20.88t17.4,52.47q0,31.59-17.4,52.48t-47.12,20.88A56.44,56.44,0,0,1,985,239.47Q974.15,234.25,968.26,226.48Zm8.44-83.8q-9.51,11.25-9.51,28.65T976.7,200q9.49,11.25,25,11.24t25-11.24q9.49-11.25,9.5-28.65t-9.5-28.65q-9.51-11.24-25-11.24T976.7,142.68Z"/><path class="cls-1" d="M1127,76.56q-6.42,6.42-16.6,6.42t-16.6-6.42q-6.42-6.44-6.42-16.33a22.62,22.62,0,0,1,6.42-16.47q6.42-6.55,16.6-6.56t16.6,6.56a22.62,22.62,0,0,1,6.43,16.47A22.16,22.16,0,0,1,1127,76.56Zm-35.61,164.92V101.19h38V241.48Z"/><path class="cls-1" d="M1190.49,241.48h-38V40.68h38Z"/><path class="cls-1" d="M1251.54,241.48h-38V40.68h38Z"/><path class="cls-1" d="M1377.64,101.19h35.08V241.48h-35.08V224.34q-13.92,20.35-44.44,20.35-29.71,0-47.12-20.88t-17.4-52.48q0-31.58,17.4-52.47T1333.2,98q30.52,0,44.44,20.34ZM1366.26,200q9.51-11.25,9.51-28.65t-9.51-28.65q-9.49-11.24-25-11.24t-25,11.24q-9.51,11.25-9.5,28.65t9.5,28.65q9.49,11.25,25,11.24T1366.26,200Z"/><path class="cls-1" d="M1512.06,100.12v35.61a38.18,38.18,0,0,0-7.5-.81q-16.87,0-25.3,8.84t-8.44,27.84v69.88h-38V101.19h35.07v18.2q12-19.53,39.62-19.54Z"/><path class="cls-1" d="M1547.12,296.87l22.72-58.26-54.58-137.42h40.43l31.52,92.86,36.21-92.86h39.63l-78.45,196Z"/><path class="cls-2" d="M576.72,372.56v55.51H563.17V296.26h51.24q21.72,0,32.12,10.49t10.4,27.57q0,17.08-10.49,27.66t-32,10.58Zm0-13H615q13.92,0,20.88-6.59t7-18.66q0-11.88-7-18.47T615,309.26H576.72Z"/><path class="cls-2" d="M684.4,466.32l16.07-38.44L661,333.58h14.3L707.11,412l32.8-78.42h13.92l-56.07,133.1Z"/><path class="cls-2" d="M784.09,344.72v83.35H770.91V344.72H746.83l3-11.14h21.11V306.66h13.18v26.92H803.4v11.14Z"/><path class="cls-2" d="M828.26,288.83v57.93q3.35-5.76,11.14-10.58t19.5-4.83q17.07,0,26.45,10t9.38,26.37v60.33H881.55V370.34q0-13.18-6.22-20.33t-18.66-7.15q-12.45,0-20.42,7.7t-8,21.63v55.88H815.08V288.83Z"/><path class="cls-2" d="M961.19,430.3q-21.54,0-34.82-14.57T913.1,380.92q0-20.42,13.27-35t34.82-14.57q21.72,0,35,14.57t13.28,35a49.93,49.93,0,0,1-13.28,34.81Q982.91,430.31,961.19,430.3Zm-34.72-49.38q0,16.15,9.65,26.83t25.07,10.67q15.59,0,25.24-10.67t9.66-26.83q0-16.34-9.66-27t-25.24-10.68q-15.6,0-25.16,10.68T926.47,380.92Z"/><path class="cls-2" d="M1038.41,333.58v14.48q3.33-6.31,11.13-11.51t20.06-5.2q17.07,0,26.45,10t9.38,26.37v60.33h-13.18V370.34q0-13.18-6.22-20.33t-18.66-7.15q-12.45,0-20.42,7.61t-8,21.35v56.25h-13.18V333.58Z"/><path class="cls-2" d="M1202.13,418.42q16.51,0,25.9-6.4t9.37-18.29q0-8.36-4.27-13.74a24,24,0,0,0-11.23-7.8,118.92,118.92,0,0,0-15.22-4.08q-8.27-1.67-16.62-3.71a78.66,78.66,0,0,1-15.32-5.39,26.14,26.14,0,0,1-11.23-10.49q-4.27-7.14-4.27-17.91,0-15.23,12.07-26.18t33-10.95q21.36,0,33.24,11.88t12.25,30.82h-13.18q-.37-13.74-9-22.1t-23.12-8.35q-14.85,0-23.3,6.59t-8.45,17.73q0,7.8,4.37,12.72a26.29,26.29,0,0,0,11.23,7.33,104.09,104.09,0,0,0,15.22,4q8.36,1.59,16.71,3.9a80.93,80.93,0,0,1,15.23,5.85,27.84,27.84,0,0,1,11.23,10.86q4.35,7.33,4.36,18.1,0,17.08-13.64,27.48t-35.74,10.39q-24,0-36.21-12t-13-30.54h13.36q1.13,14.67,10.77,22.46T1202.13,418.42Z"/><path class="cls-2" d="M1312.4,428.07h-39.92V296.26h39.92q34.53,0,53.93,17.82t19.4,48.09q0,30.25-19.4,48.08T1312.4,428.07Zm43.9-26.91q15.33-13.94,15.32-39t-15.32-39q-15.32-13.92-44.65-13.92H1286V415.08h25.62Q1341,415.08,1356.3,401.16Z"/><path class="cls-2" d="M1513.45,428.07h-17.27l-51.77-67.27-28.62,28.29v39h-13.55V296.26h13.55v75.9l75.75-75.9h18.19l-55.66,55Z"/><path class="cls-1" d="M175.94,337.15,98.47,379.59h0L32.27,342.66a5.14,5.14,0,0,1,0-8.86l65.39-36.46.1-.07,3.23-1.8,1.78,1Z"/><path class="cls-1" d="M502.21,333.8a5.13,5.13,0,0,1,0,8.86l-67.9,37.88-8.07,4.5L352.3,426.29l-8.08,4.5-71.63,40a10.91,10.91,0,0,1-10.7,0l-72.5-40.44-1.75-1-81.1-45.24-8.07-4.5,77.47-42.44-73.17-40.7-1.78-1h0l.44-.24,78.88-44,0,0,6.36-3.54L243.59,216l16.12-9,.91-.52a13.41,13.41,0,0,1,13.05-.1l.2.1,80.29,44.78,11.76,6.56,34.64,19.32,0,0L433,295.21"/><path class="cls-3" d="M357.68,337.43l76.63,43.11h0l-8.07,4.51,0,0L349.62,342.1l-42.69,23.77L277,382.54a16.25,16.25,0,0,1-1.58.75l.22.12,76.67,42.88h0l-8.06,4.51,0,0-77.73-43.5-77.1,43-1.75-1-6.31-3.53L258.09,383l.18-.1c-.23-.12-.47-.21-.7-.33l-32.08-17.84h0l-1.79-1-17.32-9.64L184,341.62l-77.44,42.47h0l-8.06-4.51,77.47-42.44-73.17-40.7-1.77-1,.44-.24-.13-.07-16.44-9.21L32.3,256.46a5,5,0,0,1-2.57-4.33c0-.09,0-.18,0-.27a6.15,6.15,0,0,1,.73-2.52.93.93,0,0,0,.05-.1,4.94,4.94,0,0,1,1.78-1.67l13.8-7.73L63.62,230,103,207.94l-.07,0,25.55-14.23,40.21-22.39L217.81,144h0l39.66-22.08a20,20,0,0,1,19.45,0l9.88,5.5,33.13,18.42h0l78,43.4,33.58,18.68-.12.07,70.76,39.64a4.93,4.93,0,0,1,2.3,2.81c0,.08.05.16.06.23a6.53,6.53,0,0,1,.19,1.16,5.81,5.81,0,0,1,0,.59,5,5,0,0,1-2.55,4.1L433,295.21"/><path class="cls-4" d="M214.46,287.49c10.74,6,10.74,15.66,0,21.64s-28.15,6-38.89,0-10.74-15.66,0-21.64S203.72,281.51,214.46,287.49Z"/><path class="cls-4" d="M218.28,192.33c10.74,6,10.74,15.66,0,21.64s-28.15,6-38.89,0-10.74-15.66,0-21.64S207.54,186.36,218.28,192.33Z"/><path class="cls-4" d="M454.58,241.8c10.31,5.74,10.31,15.05,0,20.8s-27.05,5.75-37.37,0-10.32-15.05,0-20.8S444.26,236.07,454.58,241.8Z"/><path class="cls-5" d="M183,252.68l-2.62-1.47-17.94-10.05,0,0-33.51,19.36a10.37,10.37,0,0,1-10.18.07L63.62,230,46.1,239.84l53.85,30a4.24,4.24,0,0,1,.06,7.37l-15.6,8.49L101,295.47l74.15-40.62a12.75,12.75,0,0,1,11,0l4.25,2.08.09.05.36.17ZM376,327.15l-79-43.92h0l-24.46,13.7-.6.32h0l-.65.28-.54.2q-.45.15-.93.27a8.18,8.18,0,0,1-1.1.2,6,6,0,0,1-.74.08,12.18,12.18,0,0,1-1.48,0,6.2,6.2,0,0,1-.74-.08,8.75,8.75,0,0,1-1-.18,10.63,10.63,0,0,1-1.1-.32l-.46-.17-.58-.25-.44-.22,18.13,10.1c2.59,1.45,2.57,3.77,0,5.21L206.43,354l-.06,0-.05,0,19.13,10.63,0,0h0L310.3,316.3a10.68,10.68,0,0,1,9.36,0l38,21.11ZM261.92,296.93l.11.07.07,0ZM433,295.22l-30.88-17.11a16.46,16.46,0,0,1-1.55-1l0,0a9.14,9.14,0,0,1-3.83-5.12L385.61,233.6h0l-23.15,13,3.46,11.22,5.26,17c1.15,4.87,5.16,9.38,11.39,12.85l32.12,17.8h0Z"/><path class="cls-1" d="M502.19,168.28l-70.64,39.58-.12.07L385.61,233.6l-23.15,13-8.3,4.66-57.12,32h0l-24.42,13.69c-.21.12-.42.23-.64.33h0l-.65.28-.54.2q-.45.15-.93.27a8.18,8.18,0,0,1-1.1.2l-.74.08a12.18,12.18,0,0,1-1.48,0l-.74-.08a8.75,8.75,0,0,1-1-.18,10.63,10.63,0,0,1-1.1-.32l-.46-.17-.58-.25-.44-.22-.08,0-.07,0-.15-.08-71.38-40-.09-.05-10.09-5.66-17.94-10L103,207.94l-.07,0-1.66-.93-69-38.69a5.14,5.14,0,0,1,0-8.9L260.64,31.47a13.46,13.46,0,0,1,13.24,0L502.19,159.38A5.15,5.15,0,0,1,502.19,168.28Z"/><path class="cls-3" d="M249.57,229l-22.8-49.52L137.51,166.9a1.84,1.84,0,0,1-.16-3.59l199.3-47.93a3,3,0,0,1,2.89,4.76l-83.7,109.54A3.65,3.65,0,0,1,249.57,229Z"/></svg>